<?xml version="1.0" standalone="no"?>
<!DOCTYPE svg PUBLIC "-//W3C//DTD SVG 20010904//EN"
 "http://www.w3.org/TR/2001/REC-SVG-20010904/DTD/svg10.dtd">
<svg version="1.0" xmlns="http://www.w3.org/2000/svg"
 width="190.000000pt" height="190.000000pt" viewBox="0 0 190.000000 190.000000"
 preserveAspectRatio="xMidYMid meet">
<metadata>
Created by potrace 1.16, written by Peter Selinger 2001-2019
</metadata>
<g transform="translate(0.000000,190.000000) scale(0.100000,-0.100000)"
fill="#6366F1" stroke="none">
<path d="M0 1788 l0 -113 24 51 c30 65 85 120 150 150 l51 24 -112 0 -113 0 0
-112z"/>
<path d="M1726 1876 c65 -30 120 -85 150 -150 l24 -51 0 113 0 112 -112 0
-113 0 51 -24z"/>
<path d="M0 113 l0 -113 113 0 112 0 -51 24 c-28 13 -68 41 -89 61 -20 21 -48
61 -61 89 l-24 51 0 -112z"/>
<path d="M1877 175 c-25 -59 -86 -121 -150 -151 l-52 -24 113 0 112 0 0 110
c0 61 -1 110 -2 110 -2 0 -11 -20 -21 -45z"/>
</g>
</svg>
